<svg xmlns="http://www.w3.org/2000/svg" width="1920" height="1080" xmlns:v="https://vecta.io/nano"><style><![CDATA[.D{font-family:sans-serif}.E{word-spacing:0px}.F{fill:#091313}.G{fill:#4695eb}.H{font-weight:400}.I{fill:#ff004a}.J{font-family:Amatic SC}]]></style><path d="M2.623 2.276h1920v1080h-1920z" fill="#fff"/><text xml:space="preserve" x="142.744" y="392.342" font-size="88.065" letter-spacing="0" fill="#000" class="D E"><tspan x="142.744" y="392.342" font-weight="normal" font-size="211.355" class="J">AUT</tspan></text><text xml:space="preserve" x="581.526" y="391.718" font-size="88.065" letter-spacing="0" fill="#000" class="D E"><tspan x="581.526" y="391.718" font-weight="normal" font-size="211.355" class="J">MATISATION</tspan></text><g transform="matrix(.460758 0 0 .460758 371.75993 166.82075)"><path d="M125.99 145.916c-3.288 0-6.393-1.987-7.656-5.235-1.646-4.227.447-8.988 4.674-10.634L441.56 5.993a8.21 8.21 0 0 1 10.634 4.673c1.646 4.227-.446 8.988-4.673 10.634L128.969 145.353c-.981.381-1.988.563-2.979.563zm253.74 232.47c-1.008 0-2.032-.187-3.027-.58-4.216-1.672-6.279-6.448-4.605-10.664L493.503 61.136c1.672-4.218 6.446-6.276 10.664-4.606s6.279 6.448 4.605 10.664L387.368 373.199c-1.278 3.222-4.368 5.187-7.638 5.187z" fill="#dfdbcc"/><path d="M220.604 94.767l-4.983-.444-.747-.054-91.867 35.775c-4.226 1.646-6.32 6.407-4.674 10.634 1.264 3.248 4.369 5.235 7.656 5.235.991 0 1.999-.181 2.979-.563l118.56-46.171c-8.768-2.003-17.671-3.478-26.691-4.389-.077-.006-.156-.015-.233-.023zm196.875 199.389l-.048-.531a220.11 220.11 0 0 0-4.626-29.087l-40.707 102.604c-1.672 4.216.389 8.991 4.605 10.664.994.393 2.02.58 3.027.58 3.268 0 6.36-1.965 7.638-5.187l30.326-76.437-.215-2.606z" fill="#d8cfb2"/><g fill="#36a1cb"><circle cx="198.316" cy="313.682" r="14.924"/><path d="M348.387 288.278h-13.916c-1.313-7.096-3.174-14.003-5.525-20.672l12.042-6.953c3.948-2.283 5.305-7.334 3.023-11.287l-17.146-29.699a8.27 8.27 0 0 0-11.286-3.024l-12.069 6.968a139.48 139.48 0 0 0-15.123-15.121l6.966-12.069a8.26 8.26 0 0 0-3.023-11.285l-29.698-17.146c-3.953-2.282-9.003-.928-11.286 3.024l-6.954 12.039a136.97 136.97 0 0 0-20.672-5.526V163.61c0-4.564-3.698-8.262-8.261-8.262h-34.293c-4.563 0-8.261 3.698-8.261 8.262v13.916a137.24 137.24 0 0 0-20.674 5.526l-6.952-12.039c-2.28-3.95-7.334-5.306-11.286-3.024l-29.698 17.147c-3.95 2.28-5.305 7.332-3.025 11.285l6.969 12.069a139.28 139.28 0 0 0-15.121 15.121l-12.07-6.968a8.27 8.27 0 0 0-11.286 3.024l-17.144 29.699c-2.282 3.951-.929 9.006 3.021 11.287l12.043 6.953a136.97 136.97 0 0 0-5.527 20.672H48.237c-4.563 0-8.261 3.698-8.261 8.262v34.292a8.26 8.26 0 0 0 8.261 8.262h13.916a137.19 137.19 0 0 0 5.527 20.675l-12.043 6.952c-3.948 2.28-5.303 7.334-3.021 11.285l17.144 29.699c2.282 3.951 7.334 5.305 11.286 3.025l12.07-6.97a139.37 139.37 0 0 0 15.119 15.123l-6.966 12.071c-2.278 3.949-.927 9.002 3.025 11.284l29.698 17.146c3.95 2.281 9.006.929 11.286-3.024l6.951-12.044c6.674 2.351 13.576 4.212 20.674 5.527v13.916c0 4.56 3.698 8.261 8.261 8.261h34.295c4.563 0 8.261-3.701 8.261-8.261v-13.916c7.097-1.315 14.002-3.176 20.674-5.527l6.952 12.039c2.282 3.951 7.332 5.305 11.286 3.024l29.698-17.146c3.95-2.281 5.305-7.333 3.023-11.284l-6.964-12.071a139.57 139.57 0 0 0 15.121-15.123l12.069 6.97c3.95 2.28 9.006.928 11.286-3.025l17.146-29.699c2.282-3.949.927-9.005-3.023-11.285l-12.04-6.952c2.351-6.672 4.212-13.577 5.525-20.675h13.916a8.26 8.26 0 0 0 8.261-8.262v-34.292c-.002-4.558-3.7-8.257-8.263-8.257zm-149.884 91.667c-36.594.104-66.343-29.477-66.448-66.069s29.476-66.343 66.07-66.448 66.343 29.477 66.447 66.07-29.477 66.343-66.069 66.447z"/></g><path d="M198.313 211.835c-56.252 0-101.852 45.601-101.852 101.852s45.6 101.852 101.852 101.852c26.87 0 51.314-10.406 69.514-27.409l17.709-21.822c9.285-15.358 14.628-33.366 14.628-52.621.001-56.251-45.601-101.852-101.851-101.852zm.19 168.11c-36.594.104-66.343-29.477-66.448-66.069s29.476-66.343 66.07-66.448 66.343 29.477 66.447 66.07-29.477 66.343-66.069 66.447z" fill="#8bd8f7"/><path d="M464.36.001c-26.312 0-47.64 21.331-47.64 47.64s21.329 47.64 47.64 47.64S512 73.952 512 47.641 490.669.001 464.36.001zm-1.257 62.565a14.93 14.93 0 0 1-14.924-14.924 14.93 14.93 0 0 1 14.924-14.924 14.93 14.93 0 0 1 14.924 14.924c0 8.241-6.681 14.924-14.924 14.924z" fill="#ffb92e"/><path d="M438.601 47.642c0-22.543 15.664-41.417 36.7-46.363C471.787.453 468.126.002 464.36.002c-26.312 0-47.64 21.331-47.64 47.64s21.329 47.64 47.64 47.64c3.766 0 7.426-.451 10.941-1.277-21.036-4.946-36.7-23.818-36.7-46.363z" fill="#ef9a1d"/><path d="M312.624 151.862c-3.702-2.621-8.828-1.744-11.449 1.959s-1.744 8.828 1.959 11.45c48.15 34.079 76.896 89.592 76.896 148.498 0 100.245-81.555 181.801-181.8 181.801S16.428 414.015 16.428 313.77s81.557-181.8 181.802-181.8c28.988 0 56.689 6.617 82.336 19.667 4.042 2.058 8.988.447 11.045-3.595s.448-8.988-3.594-11.046c-27.976-14.235-58.184-21.454-89.785-21.454C88.926 115.542 0 204.466 0 313.77s88.926 198.229 198.23 198.229 198.228-88.924 198.228-198.229c0-64.227-31.338-124.754-83.834-161.908z" fill="#ffb92e"/><path d="M463.103 70.779c-12.757 0-23.138-10.38-23.138-23.138s10.381-23.138 23.138-23.138 23.138 10.38 23.138 23.138-10.378 23.138-23.138 23.138zm0-29.848a6.72 6.72 0 0 0-6.71 6.71 6.72 6.72 0 0 0 6.71 6.71 6.72 6.72 0 0 0 6.71-6.71 6.72 6.72 0 0 0-6.71-6.71z" fill="#f28838"/><path d="M348.387 288.278h-13.916c-1.313-7.096-3.174-14.003-5.525-20.672l12.042-6.953c3.948-2.283 5.305-7.334 3.023-11.287l-17.146-29.699a8.27 8.27 0 0 0-11.286-3.024l-12.069 6.968a139.48 139.48 0 0 0-15.123-15.121l6.966-12.069a8.26 8.26 0 0 0-3.023-11.285l-29.698-17.146c-3.953-2.282-9.003-.928-11.286 3.024l-6.954 12.039a136.97 136.97 0 0 0-20.672-5.526V163.61c0-4.564-3.698-8.262-8.261-8.262h-34.293c-4.563 0-8.261 3.698-8.261 8.262v13.916c-6.158 1.14-12.161 2.715-18.004 4.642-10.068 21.358-15.707 45.216-15.707 70.394a166.46 166.46 0 0 0 2.231 27.146c11.539-19.28 32.596-32.214 56.701-32.283 36.592-.104 66.343 29.477 66.447 66.07.104 36.389-29.148 65.996-65.457 66.429 25.171 20.851 56.626 34.373 91.101 37.325 4.725-4.197 9.179-8.695 13.293-13.494l12.069 6.97c3.95 2.28 9.006.928 11.286-3.025l17.146-29.699c2.282-3.949.927-9.005-3.023-11.285l-12.04-6.952c2.351-6.672 4.212-13.577 5.525-20.675h13.916a8.26 8.26 0 0 0 8.261-8.262v-34.292c-.002-4.558-3.7-8.257-8.263-8.257z" opacity=".15" fill="#f5f5f5"/></g><path d="M702.416 794.385q0 26.393-10.69 43.89c-6.771 11.365-17.526 19.806-30.174 23.682l32.915 34.026h-23.346l-26.954-31.02-5.207.194q-30.571 0-47.151-18.567-16.58-18.567-16.6-52.399 0-33.557 16.651-52.022 16.651-18.465 47.294-18.496 29.797 0 46.529 18.801 16.733 18.801 16.733 51.91zm-110.199 0q0 27.911 11.964 42.341 11.964 14.43 34.759 14.419 22.989 0 34.719-14.379 11.729-14.379 11.729-42.382 0-27.728-11.688-42.056Q662.012 738 639.155 737.99q-22.989 0-34.953 14.43-11.964 14.43-11.964 41.964zm268.721-68.52v88.911q0 23.489-14.267 36.94-14.267 13.451-39.294 13.441-24.977 0-38.642-13.543-13.665-13.543-13.635-37.246v-88.503h16.08v89.675q0 17.201 9.457 26.403 9.457 9.202 27.81 9.171 17.487 0 26.954-9.253 9.467-9.253 9.457-26.475v-89.522zm146.782 137.417l-17.222-43.717h-55.425l-17.028 43.717H901.74l54.712-137.978h13.523l54.386 137.978zm-22.235-58.085l-16.08-42.586q-3.128-8.071-6.44-19.83a175.8 175.8 0 0 1-5.961 19.83l-16.305 42.575zm97.226.938v57.148h-16.091V725.865h37.939q25.476 0 37.592 9.681 12.116 9.681 12.157 29.134 0 27.249-27.81 36.848l37.541 61.754h-19.005l-33.486-57.137zm0-13.726h22.032q17.028 0 24.977-6.726 7.948-6.726 7.938-20.157 0-13.625-8.081-19.637-8.081-6.012-25.965-6.023h-20.9zm226.797 70.873h-18.924l-50.412-66.645-14.47 12.779v53.866h-16.08V725.865h16.08v68.123l62.712-68.143h19.015l-55.619 59.705zm146.68-137.417v88.911q0 23.489-14.267 36.94-14.267 13.451-39.253 13.441-24.966 0-38.642-13.543-13.675-13.543-13.686-37.246v-88.503h16.08v89.675q0 17.201 9.457 26.403 9.457 9.202 27.81 9.171 17.497 0 26.964-9.253 9.467-9.253 9.457-26.556v-89.441zm137.886 100.844q0 18.139-13.247 28.288-13.247 10.15-35.952 10.19-24.589 0-37.837-6.298V843.44a99.68 99.68 0 0 0 18.546 5.635 97.49 97.49 0 0 0 19.861 2.038q16.08 0 24.212-6.114 8.132-6.114 8.152-16.865 0-7.133-2.884-11.699-2.884-4.565-9.64-8.417-6.777-3.852-20.574-8.743-19.301-6.848-27.575-16.305-8.275-9.457-8.275-24.528 0-15.877 12.014-25.282 12.014-9.406 31.774-9.396a94.31 94.31 0 0 1 37.929 7.51l-5.003 13.91q-17.14-7.133-33.302-7.133-12.769 0-19.953 5.452-7.184 5.452-7.194 15.133 0 7.133 2.649 11.699 2.649 4.565 8.937 8.366 6.298 3.801 19.25 8.417 21.767 7.704 29.939 16.539 8.173 8.835 8.173 23.051z" class="F"/><path d="M419.174 773.189v-34.637l-30 17.313z" class="G"/><path d="M389.174 755.866l-30-17.313v34.637z" class="I"/><path d="M419.174 773.189l-30-17.324-30 17.324 30 17.324z" class="F"/><path d="M357.543 776.022l-30 17.313 30 17.324z" class="G"/><path d="M357.543 810.659v34.637l30-17.313z" class="I"/><path d="M357.543 776.022v34.637l30 17.324v-34.647z" class="F"/><path d="M390.804 827.983l30 17.313v-34.637z" class="G"/><path d="M420.805 810.659l30-17.324-30-17.313z" class="I"/><path d="M390.804 827.983l30-17.324v-34.637l-30 17.313z" class="F"/><path d="M454.28 704.312H324.068c-17.831.05-32.274 14.493-32.324 32.324v130.213c.05 17.831 14.493 32.274 32.324 32.324h89.176l-24.07-58.462-17.456 36.91h-47.65c-5.917-.077-10.694-4.855-10.771-10.771V736.636c.077-5.917 4.855-10.694 10.771-10.771H454.28c5.917.077 10.694 4.855 10.771 10.771v130.213c-.077 5.917-4.855 10.694-10.771 10.771h-28.258l8.876 21.553h19.362c17.831-.05 32.274-14.493 32.324-32.324V736.636c-.05-17.823-14.48-32.262-32.304-32.324z" class="G"/><path fill-rule="evenodd" d="M1559.822 138.939c-96.61 0-174.86 78.25-174.86 174.86 0 77.376 50.054 142.73 119.561 165.899 8.743 1.53 12.022-3.716 12.022-8.306l-.219-32.568c-43.934 8.087-55.3-10.71-58.797-20.546-1.967-5.027-10.492-20.546-17.923-24.699-6.12-3.279-14.863-11.366-.219-11.584 13.77-.219 23.606 12.677 26.885 17.923 15.737 26.448 40.874 19.016 50.928 14.426 1.53-11.366 6.12-19.016 11.147-23.388-38.906-4.372-79.561-19.453-79.561-86.337 0-19.016 6.776-34.753 17.923-46.994-1.749-4.372-7.869-22.295 1.749-46.338 0 0 14.645-4.59 48.087 17.923 13.989-3.934 28.852-5.902 43.715-5.902s29.726 1.967 43.715 5.902c33.442-22.732 48.087-17.923 48.087-17.923 9.617 24.043 3.497 41.966 1.749 46.338 11.147 12.24 17.923 27.759 17.923 46.994 0 67.103-40.874 81.966-79.78 86.337 6.339 5.464 11.803 15.956 11.803 32.349l-.219 48.087c0 4.59 3.279 10.054 12.022 8.306 69.07-23.169 119.124-88.742 119.124-165.899 0-96.61-78.25-174.86-174.86-174.86z" fill="#1b1f23"/><text xml:space="preserve" x="628.969" y="840.563" transform="rotate(344.07)" font-size="150.671" letter-spacing="0" fill="#000" class="D E"><tspan x="628.969" y="840.563" font-weight="normal" font-family="Lobster" fill="#ff0048">avec</tspan></text></svg>