<?xml version="1.0" encoding="UTF-8" standalone="no"?>
<!-- Created with Inkscape (http://www.inkscape.org/) -->

<svg
   width="1920"
   height="1080"
   viewBox="0 0 1920 1080"
   version="1.1"
   id="svg5"
   inkscape:version="1.1.2 (0a00cf5339, 2022-02-04)"
   sodipodi:docname="github-automation-with-quarkus.svg"
   inkscape:export-filename="/home/gsmet/Documents/github-automation-with-quarkus.png"
   inkscape:export-xdpi="56.68"
   inkscape:export-ydpi="56.68"
   xmlns:inkscape="http://www.inkscape.org/namespaces/inkscape"
   xmlns:sodipodi="http://sodipodi.sourceforge.net/DTD/sodipodi-0.dtd"
   xmlns="http://www.w3.org/2000/svg"
   xmlns:svg="http://www.w3.org/2000/svg">
  <sodipodi:namedview
     id="namedview7"
     pagecolor="#ffffff"
     bordercolor="#666666"
     borderopacity="1.0"
     inkscape:pageshadow="2"
     inkscape:pageopacity="0.0"
     inkscape:pagecheckerboard="0"
     inkscape:document-units="px"
     showgrid="false"
     inkscape:zoom="0.72135417"
     inkscape:cx="1086.8448"
     inkscape:cy="540.64982"
     inkscape:window-width="2560"
     inkscape:window-height="1339"
     inkscape:window-x="0"
     inkscape:window-y="0"
     inkscape:window-maximized="1"
     inkscape:current-layer="layer2" />
  <defs
     id="defs2">
    <rect
       x="647.89603"
       y="493.13982"
       width="46.084"
       height="79.788"
       id="rect23839" />
    <style
       id="style27325">.cls-1{fill:#091313;}.cls-2{fill:#4695eb;}.cls-3{fill:#ff004a;}</style>
  </defs>
  <g
     inkscape:groupmode="layer"
     id="layer2"
     inkscape:label="Layer 2">
    <rect
       style="fill:#ffffff;fill-opacity:1;stroke-width:0.996204"
       id="rect41890"
       width="1920"
       height="1080"
       x="2.6227436"
       y="2.2761734" />
  </g>
  <g
     inkscape:label="Layer 1"
     inkscape:groupmode="layer"
     id="layer1">
    <text
       xml:space="preserve"
       style="font-style:normal;font-weight:normal;font-size:88.0647px;line-height:1.25;font-family:sans-serif;letter-spacing:0px;word-spacing:0px;fill:#000000;fill-opacity:1;stroke:none;stroke-width:2.20162"
       x="688.74396"
       y="392.34161"
       id="text11671"><tspan
         sodipodi:role="line"
         id="tspan11669"
         x="688.74396"
         y="392.34161"
         style="font-style:normal;font-variant:normal;font-weight:normal;font-stretch:normal;font-size:211.355px;font-family:'Amatic SC';-inkscape-font-specification:'Amatic SC, Normal';font-variant-ligatures:normal;font-variant-caps:normal;font-variant-numeric:normal;font-variant-east-asian:normal;stroke-width:2.20162">AUT</tspan></text>
    <text
       xml:space="preserve"
       style="font-style:normal;font-weight:normal;font-size:88.0647px;line-height:1.25;font-family:sans-serif;letter-spacing:0px;word-spacing:0px;fill:#000000;fill-opacity:1;stroke:none;stroke-width:2.20162"
       x="1127.5259"
       y="391.71759"
       id="text11671-4"><tspan
         sodipodi:role="line"
         id="tspan11669-9"
         x="1127.5259"
         y="391.71759"
         style="font-style:normal;font-variant:normal;font-weight:normal;font-stretch:normal;font-size:211.355px;font-family:'Amatic SC';-inkscape-font-specification:'Amatic SC, Normal';font-variant-ligatures:normal;font-variant-caps:normal;font-variant-numeric:normal;font-variant-east-asian:normal;stroke-width:2.20162">MATION</tspan></text>
    <g
       id="g21789"
       transform="matrix(0.4607577,0,0,0.4607577,917.75993,166.82075)">
      <g
         id="g21698">
	<path
   style="fill:#dfdbcc"
   d="m 125.99,145.916 c -3.288,0 -6.393,-1.987 -7.656,-5.235 -1.646,-4.227 0.447,-8.988 4.674,-10.634 L 441.56,5.993 c 4.227,-1.649 8.988,0.445 10.634,4.673 1.646,4.227 -0.446,8.988 -4.673,10.634 L 128.969,145.353 c -0.981,0.381 -1.988,0.563 -2.979,0.563 z"
   id="path21694" />

	<path
   style="fill:#dfdbcc"
   d="m 379.73,378.386 c -1.008,0 -2.032,-0.187 -3.027,-0.58 -4.216,-1.672 -6.279,-6.448 -4.605,-10.664 L 493.503,61.136 c 1.672,-4.218 6.446,-6.276 10.664,-4.606 4.216,1.672 6.279,6.448 4.605,10.664 L 387.368,373.199 c -1.278,3.222 -4.368,5.187 -7.638,5.187 z"
   id="path21696" />

</g>
      <g
         id="g21704">
	<path
   style="fill:#d8cfb2"
   d="m 220.604,94.767 c -1.682,-0.168 -3.359,-0.318 -4.983,-0.444 -0.264,-0.021 -0.503,-0.036 -0.747,-0.054 l -91.867,35.775 c -4.226,1.646 -6.32,6.407 -4.674,10.634 1.264,3.248 4.369,5.235 7.656,5.235 0.991,0 1.999,-0.181 2.979,-0.563 l 118.56,-46.171 c -8.768,-2.003 -17.671,-3.478 -26.691,-4.389 -0.077,-0.006 -0.156,-0.015 -0.233,-0.023 z"
   id="path21700" />

	<path
   style="fill:#d8cfb2"
   d="m 417.479,294.156 -0.048,-0.531 c -0.899,-9.868 -2.451,-19.569 -4.626,-29.087 l -40.707,102.604 c -1.672,4.216 0.389,8.991 4.605,10.664 0.994,0.393 2.02,0.58 3.027,0.58 3.268,0 6.36,-1.965 7.638,-5.187 l 30.326,-76.437 c -0.066,-0.867 -0.137,-1.74 -0.215,-2.606 z"
   id="path21702" />

</g>
      <g
         id="g21710">
	<circle
   style="fill:#36a1cb"
   cx="198.31599"
   cy="313.68201"
   r="14.924"
   id="circle21706" />

	<path
   style="fill:#36a1cb"
   d="m 348.387,288.278 h -13.916 c -1.313,-7.096 -3.174,-14.003 -5.525,-20.672 l 12.042,-6.953 c 3.948,-2.283 5.305,-7.334 3.023,-11.287 l -17.146,-29.699 c -2.28,-3.949 -7.334,-5.303 -11.286,-3.024 l -12.069,6.968 c -4.646,-5.417 -9.702,-10.477 -15.123,-15.121 l 6.966,-12.069 c 2.282,-3.951 0.929,-9.005 -3.023,-11.285 L 262.632,167.99 c -3.953,-2.282 -9.003,-0.928 -11.286,3.024 l -6.954,12.039 c -6.67,-2.354 -13.575,-4.213 -20.672,-5.526 V 163.61 c 0,-4.564 -3.698,-8.262 -8.261,-8.262 h -34.293 c -4.563,0 -8.261,3.698 -8.261,8.262 v 13.916 c -7.097,1.313 -14,3.173 -20.674,5.526 l -6.952,-12.039 c -2.28,-3.95 -7.334,-5.306 -11.286,-3.024 l -29.698,17.147 c -3.95,2.28 -5.305,7.332 -3.025,11.285 l 6.969,12.069 c -5.42,4.644 -10.477,9.703 -15.121,15.121 l -12.07,-6.968 c -3.95,-2.279 -9.003,-0.927 -11.286,3.024 l -17.144,29.699 c -2.282,3.951 -0.929,9.006 3.021,11.287 l 12.043,6.953 c -2.354,6.669 -4.214,13.576 -5.527,20.672 H 48.237 c -4.563,0 -8.261,3.698 -8.261,8.262 v 34.292 c 0,4.565 3.698,8.262 8.261,8.262 h 13.916 c 1.313,7.097 3.174,14.003 5.527,20.675 l -12.043,6.952 c -3.948,2.28 -5.303,7.334 -3.021,11.285 l 17.144,29.699 c 2.282,3.951 7.334,5.305 11.286,3.025 l 12.07,-6.97 c 4.644,5.419 9.7,10.478 15.119,15.123 l -6.966,12.071 c -2.278,3.949 -0.927,9.002 3.025,11.284 l 29.698,17.146 c 3.95,2.281 9.006,0.929 11.286,-3.024 l 6.951,-12.044 c 6.674,2.351 13.576,4.212 20.674,5.527 v 13.916 c 0,4.56 3.698,8.261 8.261,8.261 h 34.295 c 4.563,0 8.261,-3.701 8.261,-8.261 v -13.916 c 7.097,-1.315 14.002,-3.176 20.674,-5.527 l 6.952,12.039 c 2.282,3.951 7.332,5.305 11.286,3.024 l 29.698,-17.146 c 3.95,-2.281 5.305,-7.333 3.023,-11.284 l -6.964,-12.071 c 5.418,-4.645 10.475,-9.703 15.121,-15.123 l 12.069,6.97 c 3.95,2.28 9.006,0.928 11.286,-3.025 l 17.146,-29.699 c 2.282,-3.949 0.927,-9.005 -3.023,-11.285 l -12.04,-6.952 c 2.351,-6.672 4.212,-13.577 5.525,-20.675 h 13.916 c 4.563,0 8.261,-3.697 8.261,-8.262 v -34.292 c -0.002,-4.558 -3.7,-8.257 -8.263,-8.257 z m -149.884,91.667 c -36.594,0.104 -66.343,-29.477 -66.448,-66.069 -0.103,-36.594 29.476,-66.343 66.07,-66.448 36.592,-0.104 66.343,29.477 66.447,66.07 0.105,36.593 -29.477,66.343 -66.069,66.447 z"
   id="path21708" />

</g>
      <path
         style="fill:#8bd8f7"
         d="m 198.313,211.835 c -56.252,0 -101.852,45.601 -101.852,101.852 0,56.251 45.6,101.852 101.852,101.852 26.87,0 51.314,-10.406 69.514,-27.409 l 17.709,-21.822 c 9.285,-15.358 14.628,-33.366 14.628,-52.621 0.001,-56.251 -45.601,-101.852 -101.851,-101.852 z m 0.19,168.11 c -36.594,0.104 -66.343,-29.477 -66.448,-66.069 -0.103,-36.594 29.476,-66.343 66.07,-66.448 36.592,-0.104 66.343,29.477 66.447,66.07 0.105,36.593 -29.477,66.343 -66.069,66.447 z"
         id="path21712" />
      <path
         style="fill:#ffb92e"
         d="m 464.36,0.001 c -26.312,0 -47.64,21.331 -47.64,47.64 0,26.312 21.329,47.64 47.64,47.64 26.31,0 47.64,-21.329 47.64,-47.64 0,-26.309 -21.331,-47.64 -47.64,-47.64 z m -1.257,62.565 c -8.241,0 -14.924,-6.683 -14.924,-14.924 0,-8.241 6.683,-14.924 14.924,-14.924 8.241,0 14.924,6.683 14.924,14.924 0,8.241 -6.681,14.924 -14.924,14.924 z"
         id="path21714" />
      <path
         style="fill:#ef9a1d"
         d="m 438.601,47.642 c 0,-22.543 15.664,-41.417 36.7,-46.363 -3.514,-0.826 -7.175,-1.277 -10.941,-1.277 -26.312,0 -47.64,21.331 -47.64,47.64 0,26.312 21.329,47.64 47.64,47.64 3.766,0 7.426,-0.451 10.941,-1.277 -21.036,-4.946 -36.7,-23.818 -36.7,-46.363 z"
         id="path21716" />
      <path
         style="fill:#ffb92e"
         d="m 312.624,151.862 c -3.702,-2.621 -8.828,-1.744 -11.449,1.959 -2.621,3.703 -1.744,8.828 1.959,11.45 48.15,34.079 76.896,89.592 76.896,148.498 0,100.245 -81.555,181.801 -181.8,181.801 -100.245,0 -181.802,-81.555 -181.802,-181.8 0,-100.244 81.557,-181.8 181.802,-181.8 28.988,0 56.689,6.617 82.336,19.667 4.042,2.058 8.988,0.447 11.045,-3.595 2.058,-4.042 0.448,-8.988 -3.594,-11.046 C 260.041,122.761 229.833,115.542 198.232,115.542 88.926,115.542 0,204.466 0,313.77 c 0,109.305 88.926,198.229 198.23,198.229 109.304,0 198.228,-88.924 198.228,-198.229 0,-64.227 -31.338,-124.754 -83.834,-161.908 z"
         id="path21718" />
      <path
         style="fill:#f28838"
         d="m 463.103,70.779 c -12.757,0 -23.138,-10.38 -23.138,-23.138 0,-12.758 10.381,-23.138 23.138,-23.138 12.759,0 23.138,10.38 23.138,23.138 0,12.758 -10.378,23.138 -23.138,23.138 z m 0,-29.848 c -3.699,0 -6.71,3.011 -6.71,6.71 0,3.699 3.011,6.71 6.71,6.71 3.701,0 6.71,-3.011 6.71,-6.71 0.001,-3.699 -3.009,-6.71 -6.71,-6.71 z"
         id="path21720" />
      <path
         style="opacity:0.15;fill:#f5f5f5;enable-background:new"
         d="m 348.387,288.278 h -13.916 c -1.313,-7.096 -3.174,-14.003 -5.525,-20.672 l 12.042,-6.953 c 3.948,-2.283 5.305,-7.334 3.023,-11.287 l -17.146,-29.699 c -2.28,-3.949 -7.334,-5.303 -11.286,-3.024 l -12.069,6.968 c -4.646,-5.417 -9.702,-10.477 -15.123,-15.121 l 6.966,-12.069 c 2.282,-3.951 0.929,-9.005 -3.023,-11.285 L 262.632,167.99 c -3.953,-2.282 -9.003,-0.928 -11.286,3.024 l -6.954,12.039 c -6.67,-2.354 -13.575,-4.213 -20.672,-5.526 V 163.61 c 0,-4.564 -3.698,-8.262 -8.261,-8.262 h -34.293 c -4.563,0 -8.261,3.698 -8.261,8.262 v 13.916 c -6.158,1.14 -12.161,2.715 -18.004,4.642 -10.068,21.358 -15.707,45.216 -15.707,70.394 0,9.247 0.772,18.313 2.231,27.146 11.539,-19.28 32.596,-32.214 56.701,-32.283 36.592,-0.104 66.343,29.477 66.447,66.07 0.104,36.389 -29.148,65.996 -65.457,66.429 25.171,20.851 56.626,34.373 91.101,37.325 4.725,-4.197 9.179,-8.695 13.293,-13.494 l 12.069,6.97 c 3.95,2.28 9.006,0.928 11.286,-3.025 l 17.146,-29.699 c 2.282,-3.949 0.927,-9.005 -3.023,-11.285 l -12.04,-6.952 c 2.351,-6.672 4.212,-13.577 5.525,-20.675 h 13.916 c 4.563,0 8.261,-3.697 8.261,-8.262 v -34.292 c -0.002,-4.558 -3.7,-8.257 -8.263,-8.257 z"
         id="path21722" />
      <g
         id="g21724">
</g>
      <g
         id="g21726">
</g>
      <g
         id="g21728">
</g>
      <g
         id="g21730">
</g>
      <g
         id="g21732">
</g>
      <g
         id="g21734">
</g>
      <g
         id="g21736">
</g>
      <g
         id="g21738">
</g>
      <g
         id="g21740">
</g>
      <g
         id="g21742">
</g>
      <g
         id="g21744">
</g>
      <g
         id="g21746">
</g>
      <g
         id="g21748">
</g>
      <g
         id="g21750">
</g>
      <g
         id="g21752">
</g>
    </g>
    <text
       xml:space="preserve"
       id="text23837"
       style="fill:black;fill-opacity:1;stroke:none;font-family:sans-serif;font-style:normal;font-weight:normal;font-size:40px;line-height:1.25;letter-spacing:0px;word-spacing:0px;white-space:pre;shape-inside:url(#rect23839)" />
    <g
       id="g27386"
       transform="matrix(1.0190378,0,0,1.0190378,290.72464,703.29333)">
      <path
         class="cls-1"
         d="m 404,89.39 q 0,25.9 -10.49,43.07 A 52.31,52.31 0 0 1 363.9,155.7 l 32.3,33.39 h -22.91 l -26.45,-30.44 -5.11,0.19 q -30,0 -46.27,-18.22 -16.27,-18.22 -16.29,-51.42 0,-32.93 16.34,-51.05 Q 311.85,20.03 341.92,20 371.16,20 387.58,38.45 404,56.9 404,89.39 Z m -108.14,0 q 0,27.39 11.74,41.55 11.74,14.16 34.11,14.15 22.56,0 34.07,-14.11 11.51,-14.11 11.51,-41.59 0,-27.21 -11.47,-41.27 -11.47,-14.06 -33.9,-14.07 -22.56,0 -34.3,14.16 -11.74,14.16 -11.74,41.18 z"
         id="path27331" />
      <path
         class="cls-1"
         d="m 559.56,22.15 v 87.25 q 0,23.05 -14,36.25 -14,13.2 -38.56,13.19 -24.51,0 -37.92,-13.29 Q 455.67,132.26 455.7,109 V 22.15 h 15.78 v 88 q 0,16.88 9.28,25.91 9.28,9.03 27.29,9 17.16,0 26.45,-9.08 9.29,-9.08 9.28,-25.98 V 22.15 Z"
         id="path27333" />
      <path
         class="cls-1"
         d="M 703.6,157 686.7,114.1 H 632.31 L 615.6,157 h -16 L 653.29,21.6 h 13.27 L 719.93,157 Z M 681.78,100 666,58.21 q -3.07,-7.92 -6.32,-19.46 a 172.55,172.55 0 0 1 -5.85,19.46 l -16,41.78 z"
         id="path27335" />
      <path
         class="cls-1"
         d="M 777.19,100.92 V 157 H 761.4 V 22.15 h 37.23 q 25,0 36.89,9.5 11.89,9.5 11.93,28.59 0,26.74 -27.29,36.16 L 857,157 h -18.65 l -32.86,-56.07 z m 0,-13.47 h 21.62 q 16.71,0 24.51,-6.6 7.8,-6.6 7.79,-19.78 0,-13.37 -7.93,-19.27 -7.93,-5.9 -25.48,-5.91 h -20.51 z"
         id="path27337" />
      <path
         class="cls-1"
         d="m 999.75,157 h -18.57 l -49.47,-65.4 -14.2,12.54 V 157 H 901.73 V 22.15 h 15.78 V 89 l 61.54,-66.87 h 18.66 l -54.58,58.59 z"
         id="path27339" />
      <path
         class="cls-1"
         d="m 1143.69,22.15 v 87.25 q 0,23.05 -14,36.25 -14,13.2 -38.52,13.19 -24.5,0 -37.92,-13.29 -13.42,-13.29 -13.43,-36.55 V 22.15 h 15.78 v 88 q 0,16.88 9.28,25.91 9.28,9.03 27.29,9 17.17,0 26.46,-9.08 9.29,-9.08 9.28,-26.06 V 22.15 Z"
         id="path27341" />
      <path
         class="cls-1"
         d="m 1279,121.11 q 0,17.8 -13,27.76 -13,9.96 -35.28,10 -24.13,0 -37.13,-6.18 v -15.16 a 97.82,97.82 0 0 0 18.2,5.53 95.67,95.67 0 0 0 19.49,2 q 15.78,0 23.76,-6 7.98,-6 8,-16.55 0,-7 -2.83,-11.48 -2.83,-4.48 -9.46,-8.26 -6.65,-3.78 -20.19,-8.58 -18.94,-6.72 -27.06,-16 -8.12,-9.28 -8.12,-24.07 0,-15.58 11.79,-24.81 11.79,-9.23 31.18,-9.22 a 92.55,92.55 0 0 1 37.22,7.37 l -4.91,13.65 q -16.82,-7 -32.68,-7 -12.53,0 -19.58,5.35 -7.05,5.35 -7.06,14.85 0,7 2.6,11.48 2.6,4.48 8.77,8.21 6.18,3.73 18.89,8.26 21.36,7.56 29.38,16.23 8.02,8.67 8.02,22.62 z"
         id="path27343" />
      <polygon
         class="cls-2"
         points="126.05,68.59 126.05,34.6 96.61,51.59 "
         id="polygon27345" />
      <polygon
         class="cls-3"
         points="96.61,51.59 67.17,34.6 67.17,68.59 "
         id="polygon27347" />
      <polygon
         class="cls-1"
         points="126.05,68.59 96.61,51.59 67.17,68.59 96.61,85.59 "
         id="polygon27349" />
      <polygon
         class="cls-2"
         points="65.57,71.37 36.13,88.36 65.57,105.36 "
         id="polygon27351" />
      <polygon
         class="cls-3"
         points="65.57,105.36 65.57,139.35 95.01,122.36 "
         id="polygon27353" />
      <polygon
         class="cls-1"
         points="65.57,71.37 65.57,105.36 95.01,122.36 95.01,88.36 "
         id="polygon27355" />
      <polygon
         class="cls-2"
         points="98.21,122.36 127.65,139.35 127.65,105.36 "
         id="polygon27357" />
      <polygon
         class="cls-3"
         points="127.65,105.36 157.09,88.36 127.65,71.37 "
         id="polygon27359" />
      <polygon
         class="cls-1"
         points="98.21,122.36 127.65,105.36 127.65,71.37 98.21,88.36 "
         id="polygon27361" />
      <path
         class="cls-2"
         d="M 160.5,1 H 32.72 A 31.81,31.81 0 0 0 1,32.72 V 160.5 a 31.81,31.81 0 0 0 31.72,31.72 h 87.51 L 96.61,134.85 79.48,171.07 H 32.72 A 10.71,10.71 0 0 1 22.15,160.5 V 32.72 A 10.71,10.71 0 0 1 32.72,22.15 H 160.5 a 10.71,10.71 0 0 1 10.57,10.57 V 160.5 a 10.71,10.71 0 0 1 -10.57,10.57 h -27.73 l 8.71,21.15 h 19 A 31.81,31.81 0 0 0 192.2,160.5 V 32.72 A 31.81,31.81 0 0 0 160.5,1 Z"
         id="path27363" />
    </g>
    <g
       style="fill:none"
       id="g27826"
       transform="matrix(0.34152365,0,0,0.34152365,282.96155,138.93945)">
      <path
         fill-rule="evenodd"
         clip-rule="evenodd"
         d="M 8,0 C 3.58,0 0,3.58 0,8 c 0,3.54 2.29,6.53 5.47,7.59 0.4,0.07 0.55,-0.17 0.55,-0.38 0,-0.19 -0.01,-0.82 -0.01,-1.49 C 4,14.09 3.48,13.23 3.32,12.78 3.23,12.55 2.84,11.84 2.5,11.65 2.22,11.5 1.82,11.13 2.49,11.12 3.12,11.11 3.57,11.7 3.72,11.94 4.44,13.15 5.59,12.81 6.05,12.6 6.12,12.08 6.33,11.73 6.56,11.53 4.78,11.33 2.92,10.64 2.92,7.58 2.92,6.71 3.23,5.99 3.74,5.43 3.66,5.23 3.38,4.41 3.82,3.31 c 0,0 0.67,-0.21 2.2,0.82 0.64,-0.18 1.32,-0.27 2,-0.27 0.68,0 1.36,0.09 2,0.27 1.53,-1.04 2.2,-0.82 2.2,-0.82 0.44,1.1 0.16,1.92 0.08,2.12 0.51,0.56 0.82,1.27 0.82,2.15 0,3.07 -1.87,3.75 -3.65,3.95 0.29,0.25 0.54,0.73 0.54,1.48 0,1.07 -0.01,1.93 -0.01,2.2 0,0.21 0.15,0.46 0.55,0.38 C 13.71,14.53 16,11.53 16,8 16,3.58 12.42,0 8,0 Z"
         transform="scale(64)"
         fill="#1b1f23"
         id="path27817" />
    </g>
    <text
       xml:space="preserve"
       style="font-style:normal;font-weight:normal;font-size:150.671px;line-height:1.25;font-family:sans-serif;letter-spacing:0px;word-spacing:0px;fill:#000000;fill-opacity:1;stroke:none;stroke-width:3.76678"
       x="628.96893"
       y="840.56342"
       id="text31609"
       transform="rotate(-15.930338)"><tspan
         sodipodi:role="line"
         id="tspan31607"
         x="628.96893"
         y="840.56342"
         style="font-style:normal;font-variant:normal;font-weight:normal;font-stretch:normal;font-size:150.671px;font-family:Lobster;-inkscape-font-specification:'Lobster, Normal';font-variant-ligatures:normal;font-variant-caps:normal;font-variant-numeric:normal;font-variant-east-asian:normal;fill:#ff0048;fill-opacity:1;stroke-width:3.76678">with</tspan></text>
  </g>
</svg>
